<?xml version="1.0" encoding="UTF-8"?>
<svg xmlns="http://www.w3.org/2000/svg" width="420" height="273" viewBox="0 0 420 273" role="img" aria-labelledby="title desc">
  <title id="title">OthmaneZ05&apos;s top languages</title>
  <desc id="desc">Generated from public GitHub data.</desc>
  <style>
    .title { font: 700 20px system-ui, sans-serif; fill: #70a5fd; }
    .label { font: 500 14px system-ui, sans-serif; fill: #a9b1d6; }
    .value { font: 700 15px system-ui, sans-serif; fill: #c0caf5; }
    .small { font: 500 12px system-ui, sans-serif; fill: #787c99; }
  </style>
  <rect width="420" height="273" rx="10" fill="#1a1b27" stroke="#292e42"/>
  
    <text x="28" y="42" class="title">Most Used Languages</text>
    <circle cx="32" cy="77" r="5" fill="#7aa2f7"/>
      <text x="46" y="82" class="label">Python</text>
      <rect x="180" y="68" width="190" height="9" rx="4.5" fill="#292e42"/>
      <rect x="180" y="68" width="184" height="9" rx="4.5" fill="#7aa2f7"/>
      <text x="392" y="82" text-anchor="end" class="value">97%</text><circle cx="32" cy="108" r="5" fill="#bb9af7"/>
      <text x="46" y="113" class="label">TypeScript</text>
      <rect x="180" y="99" width="190" height="9" rx="4.5" fill="#292e42"/>
      <rect x="180" y="99" width="3" height="9" rx="4.5" fill="#bb9af7"/>
      <text x="392" y="113" text-anchor="end" class="value">1%</text><circle cx="32" cy="139" r="5" fill="#7dcfff"/>
      <text x="46" y="144" class="label">C++</text>
      <rect x="180" y="130" width="190" height="9" rx="4.5" fill="#292e42"/>
      <rect x="180" y="130" width="3" height="9" rx="4.5" fill="#7dcfff"/>
      <text x="392" y="144" text-anchor="end" class="value">1%</text><circle cx="32" cy="170" r="5" fill="#9ece6a"/>
      <text x="46" y="175" class="label">C</text>
      <rect x="180" y="161" width="190" height="9" rx="4.5" fill="#292e42"/>
      <rect x="180" y="161" width="3" height="9" rx="4.5" fill="#9ece6a"/>
      <text x="392" y="175" text-anchor="end" class="value">1%</text><circle cx="32" cy="201" r="5" fill="#e0af68"/>
      <text x="46" y="206" class="label">PowerShell</text>
      <rect x="180" y="192" width="190" height="9" rx="4.5" fill="#292e42"/>
      <rect x="180" y="192" width="3" height="9" rx="4.5" fill="#e0af68"/>
      <text x="392" y="206" text-anchor="end" class="value">0%</text>
    <text x="28" y="250" class="small">Based on bytes of public repositories</text>
</svg>